<svg id="visual" viewBox="0 0 960 540" width="960" height="540" xmlns="http://www.w3.org/2000/svg" xmlns:xlink="http://www.w3.org/1999/xlink" version="1.1"><rect x="0" y="0" width="960" height="540" fill="#F5F0E1"></rect><path d="M0 390L48 389L96 407L144 389L192 348L240 351L288 333L336 369L384 348L432 320L480 393L528 391L576 357L624 386L672 332L720 390L768 307L816 341L864 311L912 384L960 387L960 541L912 541L864 541L816 541L768 541L720 541L672 541L624 541L576 541L528 541L480 541L432 541L384 541L336 541L288 541L240 541L192 541L144 541L96 541L48 541L0 541Z" fill="#d0b650"></path><path d="M0 354L48 392L96 382L144 406L192 345L240 409L288 399L336 413L384 385L432 412L480 427L528 384L576 337L624 336L672 424L720 407L768 399L816 358L864 386L912 350L960 420L960 541L912 541L864 541L816 541L768 541L720 541L672 541L624 541L576 541L528 541L480 541L432 541L384 541L336 541L288 541L240 541L192 541L144 541L96 541L48 541L0 541Z" fill="#bea347"></path><path d="M0 374L48 446L96 399L144 436L192 421L240 403L288 411L336 388L384 434L432 393L480 374L528 449L576 376L624 443L672 431L720 398L768 437L816 443L864 439L912 425L960 386L960 541L912 541L864 541L816 541L768 541L720 541L672 541L624 541L576 541L528 541L480 541L432 541L384 541L336 541L288 541L240 541L192 541L144 541L96 541L48 541L0 541Z" fill="#ab913f"></path><path d="M0 423L48 427L96 454L144 435L192 442L240 412L288 447L336 464L384 463L432 423L480 407L528 444L576 426L624 417L672 457L720 412L768 460L816 408L864 405L912 424L960 412L960 541L912 541L864 541L816 541L768 541L720 541L672 541L624 541L576 541L528 541L480 541L432 541L384 541L336 541L288 541L240 541L192 541L144 541L96 541L48 541L0 541Z" fill="#997f37"></path><path d="M0 460L48 468L96 484L144 450L192 480L240 464L288 473L336 451L384 443L432 465L480 466L528 456L576 483L624 449L672 440L720 475L768 444L816 444L864 442L912 451L960 452L960 541L912 541L864 541L816 541L768 541L720 541L672 541L624 541L576 541L528 541L480 541L432 541L384 541L336 541L288 541L240 541L192 541L144 541L96 541L48 541L0 541Z" fill="#876e2f"></path><path d="M0 475L48 510L96 487L144 506L192 499L240 503L288 477L336 489L384 508L432 493L480 494L528 500L576 497L624 499L672 508L720 509L768 475L816 476L864 487L912 504L960 498L960 541L912 541L864 541L816 541L768 541L720 541L672 541L624 541L576 541L528 541L480 541L432 541L384 541L336 541L288 541L240 541L192 541L144 541L96 541L48 541L0 541Z" fill="#755d27"></path></svg>