<svg id="visual" viewBox="0 0 900 675" width="900" height="675" xmlns="http://www.w3.org/2000/svg" xmlns:xlink="http://www.w3.org/1999/xlink" version="1.1"><rect x="0" y="0" width="900" height="675" fill="#D7D7E5"></rect><path d="M0 498L47 444L95 521L142 549L189 497L237 508L284 343L332 433L379 410L426 474L474 548L521 410L568 413L616 561L663 484L711 470L758 490L805 407L853 496L900 339L900 676L853 676L805 676L758 676L711 676L663 676L616 676L568 676L521 676L474 676L426 676L379 676L332 676L284 676L237 676L189 676L142 676L95 676L47 676L0 676Z" fill="#fdba3b"></path><path d="M0 463L47 561L95 519L142 548L189 511L237 412L284 499L332 390L379 527L426 531L474 408L521 481L568 498L616 522L663 398L711 461L758 469L805 418L853 529L900 515L900 676L853 676L805 676L758 676L711 676L663 676L616 676L568 676L521 676L474 676L426 676L379 676L332 676L284 676L237 676L189 676L142 676L95 676L47 676L0 676Z" fill="#f99649"></path><path d="M0 591L47 472L95 557L142 569L189 517L237 430L284 577L332 509L379 440L426 571L474 562L521 528L568 539L616 580L663 445L711 572L758 470L805 544L853 430L900 443L900 676L853 676L805 676L758 676L711 676L663 676L616 676L568 676L521 676L474 676L426 676L379 676L332 676L284 676L237 676L189 676L142 676L95 676L47 676L0 676Z" fill="#e77758"></path><path d="M0 601L47 509L95 549L142 443L189 440L237 448L284 539L332 492L379 606L426 464L474 452L521 449L568 576L616 540L663 585L711 587L758 562L805 598L853 508L900 450L900 676L853 676L805 676L758 676L711 676L663 676L616 676L568 676L521 676L474 676L426 676L379 676L332 676L284 676L237 676L189 676L142 676L95 676L47 676L0 676Z" fill="#cb5f63"></path><path d="M0 500L47 595L95 583L142 604L189 574L237 570L284 562L332 538L379 558L426 492L474 539L521 576L568 601L616 579L663 537L711 526L758 473L805 556L853 511L900 602L900 676L853 676L805 676L758 676L711 676L663 676L616 676L568 676L521 676L474 676L426 676L379 676L332 676L284 676L237 676L189 676L142 676L95 676L47 676L0 676Z" fill="#a64e67"></path><path d="M0 531L47 611L95 597L142 512L189 600L237 567L284 602L332 627L379 556L426 547L474 589L521 561L568 541L616 604L663 580L711 507L758 541L805 523L853 517L900 581L900 676L853 676L805 676L758 676L711 676L663 676L616 676L568 676L521 676L474 676L426 676L379 676L332 676L284 676L237 676L189 676L142 676L95 676L47 676L0 676Z" fill="#7d4262"></path><path d="M0 609L47 602L95 558L142 587L189 557L237 572L284 609L332 646L379 609L426 603L474 606L521 604L568 583L616 611L663 632L711 602L758 590L805 586L853 628L900 554L900 676L853 676L805 676L758 676L711 676L663 676L616 676L568 676L521 676L474 676L426 676L379 676L332 676L284 676L237 676L189 676L142 676L95 676L47 676L0 676Z" fill="#553755"></path><path d="M0 653L47 595L95 628L142 649L189 622L237 635L284 612L332 645L379 601L426 586L474 628L521 654L568 586L616 659L663 629L711 582L758 641L805 582L853 654L900 600L900 676L853 676L805 676L758 676L711 676L663 676L616 676L568 676L521 676L474 676L426 676L379 676L332 676L284 676L237 676L189 676L142 676L95 676L47 676L0 676Z" fill="#332a3f"></path><path d="M0 672L47 624L95 643L142 607L189 640L237 631L284 672L332 629L379 640L426 612L474 647L521 667L568 616L616 611L663 619L711 641L758 618L805 643L853 653L900 662L900 676L853 676L805 676L758 676L711 676L663 676L616 676L568 676L521 676L474 676L426 676L379 676L332 676L284 676L237 676L189 676L142 676L95 676L47 676L0 676Z" fill="#1a1b25"></path></svg>