<?xml version="1.0" standalone="no"?>
<!DOCTYPE svg PUBLIC "-//W3C//DTD SVG 20010904//EN"
 "http://www.w3.org/TR/2001/REC-SVG-20010904/DTD/svg10.dtd">
<svg version="1.0" xmlns="http://www.w3.org/2000/svg"
 width="1280.000000pt" height="978.000000pt" viewBox="0 0 1280.000000 978.000000"
 preserveAspectRatio="xMidYMid meet">
<metadata>
Created by potrace 1.15, written by Peter Selinger 2001-2017
</metadata>
<g transform="translate(0.000000,978.000000) scale(0.100000,-0.100000)"
fill="#1e1f30" stroke="none">
<path d="M5015 9770 c-854 -63 -1568 -318 -1949 -696 -267 -264 -341 -573
-206 -862 40 -85 94 -165 163 -238 31 -34 57 -64 57 -68 0 -3 -28 -6 -62 -6
-35 0 -142 -7 -238 -15 -1256 -107 -2253 -440 -2627 -877 -64 -76 -127 -196
-143 -275 -36 -172 33 -354 196 -517 432 -434 1444 -742 2754 -836 80 -6 300
-13 490 -17 462 -8 900 14 1325 67 83 10 152 16 155 14 9 -9 -174 -1222 -285
-1892 -30 -183 -55 -339 -55 -346 0 -11 23 -8 113 11 61 13 795 173 1631 354
835 182 1524 329 1531 327 28 -6 -593 -1506 -988 -2388 -215 -479 -323 -710
-528 -1118 -97 -194 -173 -350 -169 -345 36 41 516 758 712 1063 624 973 1184
1937 1744 3005 l163 310 -47 3 c-26 1 -663 -18 -1417 -43 -753 -25 -1389 -45
-1412 -45 l-43 0 0 58 c0 183 62 709 131 1118 l12 72 346 6 c852 15 1528 43
2081 85 88 7 131 4 260 -15 1018 -153 2109 -53 2929 268 757 297 1187 747
1158 1213 -38 601 -783 1122 -1937 1355 -192 39 -550 90 -633 90 -23 0 -46 4
-52 8 -5 4 -10 36 -11 72 -4 306 -519 565 -1324 666 -172 21 -691 30 -890 15
-156 -12 -382 -41 -496 -65 l-62 -12 -63 39 c-367 224 -884 379 -1469 442
-172 19 -673 27 -845 15z"/>
</g>
</svg>
