<?xml version="1.0" standalone="no"?>
<!DOCTYPE svg PUBLIC "-//W3C//DTD SVG 20010904//EN"
 "http://www.w3.org/TR/2001/REC-SVG-20010904/DTD/svg10.dtd">
<svg version="1.0" xmlns="http://www.w3.org/2000/svg"
 width="1280.000000pt" height="891.000000pt" viewBox="0 0 1280.000000 891.000000"
 preserveAspectRatio="xMidYMid meet">
<metadata>
Created by potrace 1.15, written by Peter Selinger 2001-2017
</metadata>
<g transform="translate(0.000000,891.000000) scale(0.100000,-0.100000)"
fill="#5a4d2e" stroke="none">
<path d="M9114 8884 c-4 -10 -42 -92 -84 -180 -136 -285 -270 -454 -360 -454
-92 0 -249 185 -409 483 -40 76 -75 137 -76 135 -2 -2 -17 -79 -34 -173 -52
-277 -127 -474 -208 -545 -29 -26 -42 -31 -66 -26 -125 25 -304 165 -532 416
l-68 75 6 -70 c34 -359 9 -628 -65 -707 -28 -30 -30 -31 -97 -25 -124 10 -297
90 -546 251 -55 36 -101 63 -102 62 -2 -1 17 -62 42 -134 111 -323 139 -549
80 -639 -21 -31 -108 -47 -209 -38 -77 6 -110 12 -216 37 -38 9 -318 99 -358
115 -8 3 12 -35 44 -83 154 -237 249 -424 256 -503 3 -32 2 -33 -77 -65 -96
-39 -209 -95 -289 -144 l-59 -35 -146 7 c-80 3 -164 9 -186 13 l-40 6 60 -55
c33 -30 74 -67 90 -81 l30 -26 -40 -32 c-22 -17 -104 -96 -182 -175 l-142
-144 -122 61 c-645 323 -1377 329 -2014 15 -254 -126 -443 -263 -638 -465
-281 -291 -488 -669 -577 -1052 l-22 -96 -56 -13 c-179 -40 -481 -172 -662
-290 -552 -360 -913 -921 -1017 -1580 -25 -159 -24 -501 1 -655 78 -483 284
-902 611 -1244 289 -302 683 -530 1091 -631 192 -48 329 -64 544 -64 279 0
520 41 774 132 125 44 353 159 466 235 l85 56 75 -19 c232 -61 501 -86 730
-70 148 10 331 39 417 65 27 8 53 15 59 15 6 0 42 -25 80 -55 315 -252 702
-417 1119 -477 135 -19 474 -16 615 6 254 39 505 120 720 233 120 62 297 178
384 251 l60 50 63 -39 c512 -313 1187 -402 1773 -234 114 33 287 98 361 135
37 19 42 20 131 4 130 -22 439 -30 580 -15 1050 114 1868 909 2020 1966 19
135 16 484 -6 620 -62 386 -203 727 -421 1019 -36 49 -64 90 -62 92 1 2 19 4
40 6 20 1 37 5 37 8 0 3 -51 42 -112 85 -275 195 -437 366 -438 464 -1 94 185
208 515 317 172 56 187 63 163 72 -244 96 -325 130 -388 164 -146 79 -252 167
-266 222 -22 88 154 266 436 441 69 43 131 84 138 90 10 9 -21 16 -140 29
-322 37 -538 106 -594 191 -53 81 70 293 320 553 l121 125 -40 -6 c-429 -67
-681 -56 -759 31 -16 18 -18 33 -14 99 10 143 76 303 256 612 17 29 21 43 12
39 -362 -152 -490 -190 -641 -192 -154 -2 -175 30 -166 257 6 150 17 213 74
420 19 71 33 130 31 132 -1 2 -57 -37 -123 -86 -123 -92 -239 -166 -333 -214
-66 -33 -196 -67 -227 -59 -97 24 -148 220 -149 576 -1 120 -2 218 -2 218 -1
0 -46 -55 -100 -122 -217 -271 -423 -433 -507 -398 -97 41 -193 242 -277 585
-17 72 -33 132 -36 134 -2 2 -7 -5 -10 -15z"/>
</g>
</svg>
